<svg xmlns="http://www.w3.org/2000/svg" width="1536" height="1536" viewBox="0 0 1536 1536">
  <style>
    .total{stroke:#ed6a37}.head{stroke:#9b3155}.part{stroke:#3689a3}.guide{stroke:#91b8c4;stroke-dasharray:7 7;opacity:.65}
    .m{fill:none;stroke-width:2}.tick{stroke-width:2}.label{font:20px Arial,sans-serif;paint-order:stroke;stroke:#fffaf2;stroke-width:7;stroke-linejoin:round}.small{font:17px Arial,sans-serif}.t-total{fill:#d95525}.t-head{fill:#8b294c}.t-part{fill:#28758c}
  </style>
  <rect width="1536" height="1536" fill="#fffdfa"/>
  <g transform="translate(0 256)">
  <image href="48-main-three-small-mascot-age-height-front-gate-v2-gen-face-lock.png" width="1536" height="1024"/>
  <line class="guide" x1="112" y1="849" x2="1460" y2="849"/>

  <!-- MIMO: visible line-envelope measurements on the 1536×1024 source PNG -->
  <line class="m total" x1="170" y1="299" x2="170" y2="849"/><line class="tick total" x1="160" y1="299" x2="181" y2="299"/><line class="tick total" x1="160" y1="849" x2="181" y2="849"/>
  <text class="label t-total" x="62" y="568">全高 550px</text>
  <line class="m head" x1="214" y1="365" x2="429" y2="365"/><line class="tick head" x1="214" y1="355" x2="214" y2="375"/><line class="tick head" x1="429" y1="355" x2="429" y2="375"/>
  <text class="label small t-head" x="230" y="348">頭幅 215px</text>
  <line class="m head" x1="447" y1="365" x2="447" y2="615"/><line class="tick head" x1="437" y1="365" x2="457" y2="365"/><line class="tick head" x1="437" y1="615" x2="457" y2="615"/>
  <text class="label small t-head" x="458" y="496">頭高 250px</text>
  <line class="m part" x1="193" y1="612" x2="193" y2="795"/><line class="tick part" x1="183" y1="612" x2="203" y2="612"/><line class="tick part" x1="183" y1="795" x2="203" y2="795"/>
  <text class="label small t-part" x="80" y="710">服丈 183px</text>
  <text class="label small t-part" x="230" y="824">翼長 137px</text>

  <!-- GEN -->
  <line class="m total" x1="563" y1="284" x2="563" y2="849"/><line class="tick total" x1="553" y1="284" x2="574" y2="284"/><line class="tick total" x1="553" y1="849" x2="574" y2="849"/>
  <text class="label t-total" x="575" y="305">全高 565px</text>
  <line class="m head" x1="639" y1="393" x2="821" y2="393"/><line class="tick head" x1="639" y1="383" x2="639" y2="403"/><line class="tick head" x1="821" y1="383" x2="821" y2="403"/>
  <text class="label small t-head" x="666" y="376">頭幅 182px</text>
  <line class="m head" x1="842" y1="393" x2="842" y2="580"/><line class="tick head" x1="832" y1="393" x2="852" y2="393"/><line class="tick head" x1="832" y1="580" x2="852" y2="580"/>
  <text class="label small t-head" x="852" y="492">頭高 187px</text>
  <line class="m part" x1="607" y1="578" x2="607" y2="710"/><line class="tick part" x1="597" y1="578" x2="617" y2="578"/><line class="tick part" x1="597" y1="710" x2="617" y2="710"/>
  <text class="label small t-part" x="618" y="704">服丈 132px</text>
  <text class="label small t-part" x="825" y="735">腕長 139px</text>
  <text class="label small t-part" x="660" y="875">耳を除く身体高 456px</text>

  <!-- LUKE -->
  <line class="m total" x1="1010" y1="291" x2="1010" y2="849"/><line class="tick total" x1="1000" y1="291" x2="1021" y2="291"/><line class="tick total" x1="1000" y1="849" x2="1021" y2="849"/>
  <text class="label t-total" x="1022" y="312">全高 558px</text>
  <line class="m head" x1="1066" y1="359" x2="1271" y2="359"/><line class="tick head" x1="1066" y1="349" x2="1066" y2="369"/><line class="tick head" x1="1271" y1="349" x2="1271" y2="369"/>
  <text class="label small t-head" x="1094" y="342">頭幅 205px</text>
  <line class="m head" x1="1284" y1="359" x2="1284" y2="580"/><line class="tick head" x1="1274" y1="359" x2="1294" y2="359"/><line class="tick head" x1="1274" y1="580" x2="1294" y2="580"/>
  <text class="label small t-head" x="1295" y="454">頭高 221px</text>
  <line class="m part" x1="1040" y1="578" x2="1040" y2="723"/><line class="tick part" x1="1030" y1="578" x2="1050" y2="578"/><line class="tick part" x1="1030" y1="723" x2="1050" y2="723"/>
  <text class="label small t-part" x="1052" y="716">ベスト丈 145px</text>
  <text class="label small t-part" x="1210" y="749">腕長 160px</text>
  <text class="label small t-part" x="1288" y="795">尻尾 303×309px</text>

  <rect x="1060" y="902" width="402" height="65" rx="10" fill="#fffaf2" fill-opacity=".9" stroke="#d4cec6"/>
  <line class="total tick" x1="1080" y1="924" x2="1120" y2="924"/><text class="label small t-total" x="1130" y="930">全高（耳・冠羽込み）</text>
  <line class="head tick" x1="1080" y1="950" x2="1120" y2="950"/><text class="label small t-head" x="1130" y="956">頭部（耳・冠羽を除く）</text>
  </g>
</svg>
